<svg width="14" height="18" viewBox="0 0 14 18" fill="none" xmlns="http://www.w3.org/2000/svg">
<path d="M12.2261 14.3942L12.0981 14.3161C12.0996 14.3135 12.1022 14.3081 12.103 14.3026C12.1034 14.3004 12.1034 14.2984 12.1031 14.2964C12.1028 14.2946 12.102 14.291 12.099 14.2855L12.2261 14.3942ZM12.2261 14.3942L12.0982 14.3159C12.0967 14.3183 12.0929 14.3234 12.0877 14.3272C12.0855 14.3288 12.0831 14.3301 12.0804 14.331C12.0778 14.3319 12.0734 14.333 12.0662 14.333H1.93387C1.92669 14.333 1.92225 14.3319 1.91968 14.331C1.91695 14.3301 1.91458 14.3288 1.91234 14.3272C1.90712 14.3234 1.90337 14.3183 1.90197 14.316L1.90181 14.3158C1.90037 14.3134 1.89781 14.3081 1.89698 14.3027C1.89665 14.3004 1.89664 14.2985 1.89695 14.2965C1.89724 14.2947 1.89805 14.2911 1.90107 14.2855L1.76926 14.2139L1.90107 14.2855L2.61963 12.9624H11.3805L12.099 14.2854L12.2308 14.2139C12.2756 14.2965 12.2424 14.3675 12.2261 14.3942ZM13.0212 13.7981L13.0212 13.7981L12.232 12.3451V8.71225C12.232 6.41149 10.6838 4.4624 8.56021 3.80984V2.08948C8.56024 1.24105 7.85777 0.555933 7.00001 0.555933C6.14225 0.555933 5.43978 1.24105 5.43978 2.08948V3.80987C3.31629 4.46246 1.76794 6.41152 1.76794 8.71228V12.3451L0.978857 13.7981C0.978856 13.7981 0.978855 13.7981 0.978854 13.7981C0.797794 14.1315 0.808129 14.5255 1.00618 14.8493L1.00619 14.8493C1.20409 15.1727 1.55193 15.3651 1.93387 15.3651H5.00228C5.12925 16.3395 5.97854 17.0912 7.00001 17.0912C8.02145 17.0912 8.87077 16.3395 8.99774 15.3651H12.0662C12.4481 15.3651 12.7959 15.1726 12.9939 14.8493L12.9939 14.8492C13.1919 14.5255 13.2022 14.1315 13.0212 13.7981ZM6.48596 2.08948C6.48596 1.81574 6.71397 1.58798 6.99998 1.58798C7.28598 1.58798 7.514 1.81574 7.514 2.08948V3.60127C7.34485 3.58494 7.17339 3.57652 6.99998 3.57652C6.82652 3.57652 6.65507 3.58496 6.48596 3.60128V2.08948ZM2.81415 8.71225C2.81415 6.45229 4.68933 4.60851 7.00001 4.60851C9.31069 4.60851 11.1859 6.45229 11.1859 8.71225V11.9303H2.81415V8.71225ZM7.00001 16.0592C6.5541 16.0592 6.18025 15.7633 6.0672 15.3651H7.93287C7.81976 15.7633 7.44586 16.0592 7.00001 16.0592Z" fill="#978AF4" stroke="#978AF4" stroke-width="0.3"/>
<path d="M6.99858 5.28433C5.07605 5.28433 3.50723 6.81935 3.50723 8.7124C3.50723 9.00004 3.74413 9.22842 4.03032 9.22842C4.3165 9.22842 4.55341 9.00004 4.55341 8.7124C4.55341 7.39408 5.64773 6.31637 6.99858 6.31637C7.28477 6.31637 7.52167 6.08799 7.52167 5.80035C7.52167 5.51263 7.28475 5.28433 6.99858 5.28433Z" fill="#978AF4" stroke="#978AF4" stroke-width="0.3"/>
</svg>
