<svg width="18" height="18" viewBox="0 0 18 18" fill="none" xmlns="http://www.w3.org/2000/svg">
<path d="M6.25 11.75L11.75 6.25" stroke="white" stroke-width="1.5" stroke-linecap="round" stroke-linejoin="round"/>
<path d="M6.70833 7.16667C6.96146 7.16667 7.16667 6.96146 7.16667 6.70833C7.16667 6.4552 6.96146 6.25 6.70833 6.25C6.4552 6.25 6.25 6.4552 6.25 6.70833C6.25 6.96146 6.4552 7.16667 6.70833 7.16667Z" fill="white" stroke="white" stroke-width="1.5" stroke-linecap="round" stroke-linejoin="round"/>
<path d="M11.2916 11.7499C11.5447 11.7499 11.7499 11.5447 11.7499 11.2916C11.7499 11.0385 11.5447 10.8333 11.2916 10.8333C11.0385 10.8333 10.8333 11.0385 10.8333 11.2916C10.8333 11.5447 11.0385 11.7499 11.2916 11.7499Z" fill="white" stroke="white" stroke-width="1.5" stroke-linecap="round" stroke-linejoin="round"/>
<path d="M2.58327 4.59993C2.58327 4.06508 2.79574 3.55213 3.17394 3.17394C3.55213 2.79574 4.06508 2.58327 4.59993 2.58327H5.5166C6.04909 2.58296 6.55985 2.37207 6.93743 1.9966L7.5791 1.35493C7.76651 1.16647 7.98933 1.01691 8.23474 0.914849C8.48015 0.812793 8.74332 0.760254 9.0091 0.760254C9.27489 0.760254 9.53805 0.812793 9.78346 0.914849C10.0289 1.01691 10.2517 1.16647 10.4391 1.35493L11.0808 1.9966C11.4584 2.37207 11.9691 2.58296 12.5016 2.58327H13.4183C13.9531 2.58327 14.4661 2.79574 14.8443 3.17394C15.2225 3.55213 15.4349 4.06508 15.4349 4.59993V5.5166C15.4352 6.04909 15.6461 6.55985 16.0216 6.93743L16.6633 7.5791C16.8517 7.76651 17.0013 7.98933 17.1034 8.23474C17.2054 8.48015 17.2579 8.74331 17.2579 9.0091C17.2579 9.27489 17.2054 9.53805 17.1034 9.78346C17.0013 10.0289 16.8517 10.2517 16.6633 10.4391L16.0216 11.0808C15.6461 11.4584 15.4352 11.9691 15.4349 12.5016V13.4183C15.4349 13.9531 15.2225 14.4661 14.8443 14.8443C14.4661 15.2225 13.9531 15.4349 13.4183 15.4349H12.5016C11.9691 15.4352 11.4584 15.6461 11.0808 16.0216L10.4391 16.6633C10.2517 16.8517 10.0289 17.0013 9.78346 17.1034C9.53805 17.2054 9.27489 17.2579 9.0091 17.2579C8.74332 17.2579 8.48015 17.2054 8.23474 17.1034C7.98933 17.0013 7.76651 16.8517 7.5791 16.6633L6.93743 16.0216C6.55985 15.6461 6.04909 15.4352 5.5166 15.4349H4.59993C4.06508 15.4349 3.55213 15.2225 3.17394 14.8443C2.79574 14.4661 2.58327 13.9531 2.58327 13.4183V12.5016C2.58296 11.9691 2.37207 11.4584 1.9966 11.0808L1.35493 10.4391C1.16647 10.2517 1.01691 10.0289 0.914849 9.78346C0.812793 9.53805 0.760254 9.27489 0.760254 9.0091C0.760254 8.74331 0.812793 8.48015 0.914849 8.23474C1.01691 7.98933 1.16647 7.76651 1.35493 7.5791L1.9966 6.93743C2.37207 6.55985 2.58296 6.04909 2.58327 5.5166V4.59993" stroke="white" stroke-width="1.5" stroke-linecap="round" stroke-linejoin="round"/>
</svg>
